<svg id="Blue_Brain_name_graphic" data-name="Blue Brain name graphic" xmlns="http://www.w3.org/2000/svg" width="273.794" height="33.897" viewBox="0 0 273.794 33.897">
  <path id="Path_60" data-name="Path 60" d="M375.856,5176.228c4.931,0,7.578,1.849,7.578,6.454,0,3.008-.943,4.495-2.937,5.583,2.14.834,3.554,2.356,3.554,5.764,0,5.075-3.082,7.034-7.9,7.034h-9.715v-24.835Zm-5.4,3.48v7.106h5.329c2.466,0,3.553-1.232,3.553-3.662,0-2.392-1.233-3.444-3.7-3.444Zm0,10.515v7.359h5.475c2.5,0,3.987-.8,3.987-3.77,0-2.829-2.1-3.589-4.061-3.589Z" transform="translate(-366.431 -5175.395)" fill="#00ebfb"/>
  <path id="Path_61" data-name="Path 61" d="M388.362,5175.4h3.952v25.668h-3.952Z" transform="translate(-366.431 -5175.395)" fill="#00ebfb"/>
  <path id="Path_62" data-name="Path 62" d="M412.217,5182.936v18.127H408.3v-1.125a11.976,11.976,0,0,1-4.895,1.523c-5.184,0-6.271-2.683-6.271-9.064v-9.461h3.951v9.5c0,4.024.254,5.51,3.082,5.51A10.769,10.769,0,0,0,408.3,5197v-14.066Z" transform="translate(-366.431 -5175.395)" fill="#00ebfb"/>
  <path id="Path_63" data-name="Path 63" d="M430.921,5197.69l.073,2.937a45.049,45.049,0,0,1-7.324.834c-5.438,0-7.541-2.9-7.541-9.281,0-6.635,2.864-9.644,7.867-9.644,5.076,0,7.614,2.647,7.614,8.3l-.254,2.827H420.117c.036,2.9,1.124,4.352,4.133,4.352C427.114,5198.018,430.921,5197.69,430.921,5197.69Zm-3.191-7.069c0-3.625-1.087-4.822-3.734-4.822-2.683,0-3.879,1.342-3.915,4.822Z" transform="translate(-366.431 -5175.395)" fill="#00ebfb"/>
  <path id="Path_64" data-name="Path 64" d="M453.286,5176.228c4.931,0,7.577,1.849,7.577,6.454,0,3.008-.942,4.495-2.936,5.583,2.139.834,3.553,2.356,3.553,5.764,0,5.075-3.082,7.034-7.9,7.034H443.86v-24.835Zm-5.4,3.48v7.106h5.329c2.466,0,3.553-1.232,3.553-3.662,0-2.392-1.233-3.444-3.7-3.444Zm0,10.515v7.359h5.474c2.5,0,3.988-.8,3.988-3.77,0-2.829-2.1-3.589-4.061-3.589Z" transform="translate(-366.431 -5175.395)" fill="#00ebfb"/>
  <path id="Path_65" data-name="Path 65" d="M465.573,5182.936h3.916v2.174a20.242,20.242,0,0,1,6.163-2.574v3.952a32.144,32.144,0,0,0-6.127,1.921v12.654h-3.952Z" transform="translate(-366.431 -5175.395)" fill="#00ebfb"/>
  <path id="Path_66" data-name="Path 66" d="M492.074,5196.784a1.56,1.56,0,0,0,1.6,1.668l-.108,3.009c-2.212,0-3.481-.29-4.823-1.341a16.006,16.006,0,0,1-5.837,1.341c-3.589,0-5.4-1.994-5.4-5.764,0-3.843,2.1-5.148,5.982-5.474l4.677-.4v-1.3c0-2-.87-2.611-2.646-2.611-2.43,0-6.817.363-6.817.363l-.144-2.792a37.347,37.347,0,0,1,7.287-.943c4.423,0,6.236,1.849,6.236,5.983Zm-8.121-3.77c-1.668.145-2.5.943-2.5,2.574s.689,2.646,2.211,2.646a17.215,17.215,0,0,0,4.5-.8v-4.823Z" transform="translate(-366.431 -5175.395)" fill="#00ebfb"/>
  <path id="Path_67" data-name="Path 67" d="M497.038,5175.684h3.952v4.17h-3.952Zm0,7.252h3.952v18.127h-3.952Z" transform="translate(-366.431 -5175.395)" fill="#00ebfb"/>
  <path id="Path_68" data-name="Path 68" d="M505.774,5201.063v-18.127h3.916v1.123a12.057,12.057,0,0,1,5-1.523c5.039,0,6.273,2.864,6.273,8.81v9.717H517.05v-9.608c0-3.626-.472-5.4-3.227-5.4a10.936,10.936,0,0,0-4.1.943v14.067Z" transform="translate(-366.431 -5175.395)" fill="#00ebfb"/>
  <path id="Path_69" data-name="Path 69" d="M538.037,5193.34v7.723h-4.024v-24.835h9.1c5.657,0,8.448,2.755,8.448,8.338,0,5.62-2.791,8.774-8.448,8.774Zm5.039-3.481c3.01,0,4.351-1.848,4.351-5.293,0-3.408-1.341-4.858-4.351-4.858h-5.039v10.151Z" transform="translate(-366.431 -5175.395)" fill="#00ebfb"/>
  <path id="Path_70" data-name="Path 70" d="M554.964,5182.936h3.916v2.174a20.242,20.242,0,0,1,6.163-2.574v3.952a32.114,32.114,0,0,0-6.127,1.921v12.654h-3.952Z" transform="translate(-366.431 -5175.395)" fill="#00ebfb"/>
  <path id="Path_71" data-name="Path 71" d="M583.205,5191.89c0,6.018-1.849,9.571-8.085,9.571-6.2,0-8.085-3.553-8.085-9.571,0-5.873,2.03-9.354,8.085-9.354S583.205,5186.017,583.205,5191.89Zm-3.988,0c0-4.205-.906-6.018-4.1-6.018s-4.1,1.813-4.1,6.018.725,6.236,4.1,6.236S579.217,5196.1,579.217,5191.89Z" transform="translate(-366.431 -5175.395)" fill="#00ebfb"/>
  <path id="Path_72" data-name="Path 72" d="M587.154,5182.936h3.916v17.474c0,4.785-1.3,6.381-6.272,8.882l-1.559-2.937c3.3-2.066,3.915-2.718,3.915-5.981Zm0-7.252h3.916v4.17h-3.916Z" transform="translate(-366.431 -5175.395)" fill="#00ebfb"/>
  <path id="Path_73" data-name="Path 73" d="M609.812,5197.69l.073,2.937a45.049,45.049,0,0,1-7.324.834c-5.438,0-7.541-2.9-7.541-9.281,0-6.635,2.864-9.644,7.867-9.644,5.076,0,7.614,2.647,7.614,8.3l-.254,2.827H599.008c.036,2.9,1.124,4.352,4.133,4.352C606.005,5198.018,609.812,5197.69,609.812,5197.69Zm-3.191-7.069c0-3.625-1.088-4.822-3.734-4.822-2.683,0-3.879,1.342-3.915,4.822Z" transform="translate(-366.431 -5175.395)" fill="#00ebfb"/>
  <path id="Path_74" data-name="Path 74" d="M626.522,5183.225l-.144,3.118s-2.864-.29-4.242-.29c-3.771,0-4.641,1.523-4.641,5.692,0,4.641.762,6.2,4.677,6.2,1.378,0,4.242-.29,4.242-.29l.108,3.155a44.374,44.374,0,0,1-5.51.652c-5.583,0-7.5-2.755-7.5-9.716,0-6.489,2.175-9.209,7.577-9.209A38.69,38.69,0,0,1,626.522,5183.225Z" transform="translate(-366.431 -5175.395)" fill="#00ebfb"/>
  <path id="Path_75" data-name="Path 75" d="M635.077,5186.307v7.976c0,2.719.109,3.661,1.993,3.661,1.016,0,2.974-.108,2.974-.108l.181,3.154a27.088,27.088,0,0,1-3.7.471c-4.1,0-5.366-1.523-5.366-6.743v-8.411h-2.32v-3.371h2.32v-5.258h3.916v5.258h5v3.371Z" transform="translate(-366.431 -5175.395)" fill="#00ebfb"/>
</svg>
